# xmcd
#
# Track frame offsets:
#	150
#	12933
#	28820
#	45310
#	62105
#	82395
#	96075
#	109450
#	124183
#	139110
#	153595
#	171310
#
# Disc length: 2476 seconds
#
# Revision: 0
# Processed by: cddbd v1.4PL0 Copyright (c) Steve Scherf et al.
# Submitted via: EasyCDDAExtractor 5.0.2.1
#
DISCID=a809aa0c
DTITLE=Percy Sledge - Les triomphes des stars
DYEAR=1900
DGENRE=Blues
TTITLE0=When a man loves a woman
TTITLE1=Walking in the sun
TTITLE2=Behind closed doors
TTITLE3=Make it good and make it last
TTITLE4=The good love
TTITLE5=I believe in you
TTITLE6=My special prayer
TTITLE7=I'll be your everything
TTITLE8=If this is the last time
TTITLE9=Hard to be friends
TTITLE10=Blue water
TTITLE11=Love away people
EXTD=
EXTT0=
EXTT1=
EXTT2=
EXTT3=
EXTT4=
EXTT5=
EXTT6=
EXTT7=
EXTT8=
EXTT9=
EXTT10=
EXTT11=
PLAYORDER=
